# xmcd
#
# Track frame offsets:
#	150
#	12327
#	23410
#	32064
#	43730
#	53435
#	63677
#	73411
#	83064
#	95327
#	105545
#	114306
#	123728
#	136461
#	146224
#	156913
#	166819
#	179039
#	192228
#	204869
#	213644
#	223467
#	235223
#	245090
#	256561
#	266534
#	277146
#	288903
#	300328
#
# Disc length: 4144 seconds
# Revision: 1
# Processed by: cddbd v1.5.2PL0 Copyright (c) Steve Scherf et al.
# Submitted via: dBpowerAMP V12.0
#
DISCID=b4102e1d
DTITLE=Various Artist - The Complete Mercury and Columbia Singles As and Bs 1955-62
DYEAR=1955
DGENRE=Country
TTITLE0=Jimmy Dean and The Texas Wildcats - False Pride
TTITLE1=Jimmy Dean and The Texas Wildcats - Big Blue Diamonds
TTITLE2=Jimmy Dean and The Texas Wildcats - Find 'Em, Fool 'Em and Leave 'Em Alone
TTITLE3=Jimmy Dean and The Texas Wildcats - My World Is You
TTITLE4=Jimmy Dean and The Texas Wildcats - Freight Train Blues
TTITLE5=Jimmy Dean and The Texas Wildcats - Glad Rags
TTITLE6=Jimmy Dean - Hello Mr. Blues
TTITLE7=Jimmy Dean - I Found Out
TTITLE8=Jimmy Dean - Losing Game
TTITLE9=Jimmy Dean - Happy Child
TTITLE10=Jimmy Dean - Look on the Good Side
TTITLE11=Jimmy Dean - Do You Love Me
TTITLE12=Jimmy Dean - Bumming Around
TTITLE13=Jimmy Dean - Nothing Can Stop My Love
TTITLE14=Jimmy Dean - What This Old World Needs
TTITLE15=Jimmy Dean - A Fool in Love
TTITLE16=Jimmy Dean with Ray Ellis and His Orchestra - Deep Blue Sea
TTITLE17=Jimmy Dean with Ray Ellis and His Orchestra - Love Me So I'll Know
TTITLE18=Jimmy Dean with Ray Ellis and His Orchestra - Little Sandy Sleighfoot
TTITLE19=Jimmy Dean with Ray Ellis and His Orchestra - When They Ring the Golden Bells
TTITLE20=Jimmy Dean with Ray Ellis and His Orchestra - Makin' Up My Mind
TTITLE21=Jimmy Dean with Ray Ellis and His Orchestra - Starlight Starbright
TTITLE22=Jimmy Dean with Ray Ellis and His Orchestra - School of Love
TTITLE23=Jimmy Dean with Ray Ellis and His Orchestra - You Should See Tennessee, Mam'selle
TTITLE24=Jimmy Dean with Ray Ellis and His Orchestra - My Heart Is an Open Book
TTITLE25=Jimmy Dean with Ray Ellis and His Orchestra - Shark in the Bathtub
TTITLE26=Jimmy Dean with Ray Ellis and His Orchestra - Sing Along
TTITLE27=Jimmy Dean with Ray Ellis and His Orchestra - Weekend Blue
TTITLE28=Jimmy Dean Orchestra conducted by Jimmy Carroll - Counting Tears
EXTD=
EXTT0=
EXTT1=
EXTT2=
EXTT3=
EXTT4=
EXTT5=
EXTT6=
EXTT7=
EXTT8=
EXTT9=
EXTT10=
EXTT11=
EXTT12=
EXTT13=
EXTT14=
EXTT15=
EXTT16=
EXTT17=
EXTT18=
EXTT19=
EXTT20=
EXTT21=
EXTT22=
EXTT23=
EXTT24=
EXTT25=
EXTT26=
EXTT27=
EXTT28=
PLAYORDER=
